<mxfile host="65bd71144e">
    <diagram id="n-y3Garob8GmoL7d-FYO" name="Page-1">
        <mxGraphModel dx="1093" dy="451" grid="1" gridSize="10" guides="1" tooltips="1" connect="1" arrows="1" fold="1" page="1" pageScale="1" pageWidth="850" pageHeight="1100" math="0" shadow="0">
            <root>
                <mxCell id="0"/>
                <mxCell id="1" parent="0"/>
                <mxCell id="16" value="Pre-installed on Leda Quickstart image" style="rounded=0;whiteSpace=wrap;html=1;fillColor=none;strokeColor=#d79b00;dashed=1;labelPosition=center;verticalLabelPosition=top;align=center;verticalAlign=bottom;" parent="1" vertex="1">
                    <mxGeometry x="230" y="155" width="370" height="185" as="geometry"/>
                </mxCell>
                <mxCell id="10" value="gRPC" style="edgeStyle=none;html=1;fillColor=#d5e8d4;strokeColor=#82b366;" parent="1" source="2" target="6" edge="1">
                    <mxGeometry relative="1" as="geometry"/>
                </mxCell>
                <mxCell id="2" value="Dog Mode&lt;br&gt;&amp;lt;Application&amp;gt;" style="rounded=0;whiteSpace=wrap;html=1;fillColor=#d5e8d4;strokeColor=#82b366;" parent="1" vertex="1">
                    <mxGeometry x="55" y="170" width="120" height="60" as="geometry"/>
                </mxCell>
                <mxCell id="12" style="edgeStyle=none;html=1;" parent="1" source="3" target="4" edge="1">
                    <mxGeometry relative="1" as="geometry"/>
                </mxCell>
                <mxCell id="3" value="HVAC Service&lt;br&gt;&amp;lt;Vehicle Service&amp;gt;" style="rounded=0;whiteSpace=wrap;html=1;fillColor=#d5e8d4;strokeColor=#82b366;" parent="1" vertex="1">
                    <mxGeometry x="450" y="170" width="120" height="60" as="geometry"/>
                </mxCell>
                <mxCell id="4" value="Dummy HVAC" style="rounded=0;whiteSpace=wrap;html=1;" parent="1" vertex="1">
                    <mxGeometry x="450" y="260" width="120" height="60" as="geometry"/>
                </mxCell>
                <mxCell id="11" value="gRPC" style="edgeStyle=none;html=1;fillColor=#d5e8d4;strokeColor=#82b366;" parent="1" source="6" target="3" edge="1">
                    <mxGeometry relative="1" as="geometry"/>
                </mxCell>
                <mxCell id="6" value="Kuksa.VAL&lt;br&gt;Data Broker" style="rounded=0;whiteSpace=wrap;html=1;fillColor=#d5e8d4;strokeColor=#82b366;" parent="1" vertex="1">
                    <mxGeometry x="250" y="170" width="120" height="60" as="geometry"/>
                </mxCell>
                <mxCell id="9" value="MQTT or gRPC" style="edgeStyle=none;html=1;" parent="1" source="8" target="2" edge="1">
                    <mxGeometry relative="1" as="geometry"/>
                </mxCell>
                <mxCell id="8" value="Cloud or&lt;br&gt;Mobile trigger" style="ellipse;shape=cloud;whiteSpace=wrap;html=1;" parent="1" vertex="1">
                    <mxGeometry x="50" y="30" width="130" height="80" as="geometry"/>
                </mxCell>
            </root>
        </mxGraphModel>
    </diagram>
</mxfile>